# xmcd
#
# Track frame offsets:
#	150
#	15972
#	32563
#	52789
#	79861
#	103067
#	121985
#	141569
#	162239
#	184679
#	205558
#	227712
#	246424
#	263458
#	281342
#	297749
#	317179
#	329992
#
# Disc length: 4648 seconds
#
# Revision: 0
# Processed by: cddbd v1.4PL0 Copyright (c) Steve Scherf et al.
# Submitted via: EasyCDDAExtractor 4.5.0.2
#
DISCID=03122612
DTITLE=Alanis Morissette
DYEAR=1900
DGENRE=
TTITLE0=21 Things I Want In A Lover
TTITLE1=Narcissus
TTITLE2=Hands Clean
TTITLE3=Flinch
TTITLE4=So Unsexy
TTITLE5=Precious Illusions
TTITLE6=That A Particular Time
TTITLE7=A Man
TTITLE8=You Owe Me Nothing In Return
TTITLE9=Surrendering
TTITLE10=Utopia
TTITLE11=You Oughta Know
TTITLE12=Ironic
TTITLE13=You Learn
TTITLE14=Hand In My Pocket
TTITLE15=So Pure
TTITLE16=Unsent
TTITLE17=Bonus Track
EXTD=
EXTT0=
EXTT1=
EXTT2=
EXTT3=
EXTT4=
EXTT5=
EXTT6=
EXTT7=
EXTT8=
EXTT9=
EXTT10=
EXTT11=
EXTT12=
EXTT13=
EXTT14=
EXTT15=
EXTT16=
EXTT17=
PLAYORDER=
